<svg width="301" height="48" viewBox="0 0 301 48" fill="none" xmlns="http://www.w3.org/2000/svg">
<path fill-rule="evenodd" clip-rule="evenodd" d="M296.835 14.7915C297.083 14.6889 297.324 14.5448 297.581 14.5075C297.653 14.4982 297.772 14.7995 297.933 15.0622C297.637 15.1329 297.376 15.2449 297.123 15.2315C297.019 15.2249 296.931 14.9475 296.835 14.7915V14.7915ZM167.84 46.2795C167.876 46.4022 167.703 46.5902 167.619 46.7488C167.464 46.6568 167.309 46.5648 167.155 46.4715C167.237 46.3128 167.32 46.1555 167.403 45.9969C167.557 46.0875 167.804 46.1528 167.84 46.2795ZM241.732 7.31284C241.497 7.23018 241.316 7.00352 240.979 6.72486C241.395 6.52219 241.64 6.40485 241.883 6.28752C241.996 6.52752 242.161 6.76218 242.193 7.01151C242.205 7.09951 241.847 7.35284 241.732 7.31284ZM260.601 3.19286C260.857 3.19286 261.111 3.50084 261.509 3.77417C261.136 4.01417 260.875 4.31418 260.653 4.28618C260.397 4.25552 260.179 3.9355 259.944 3.73817C260.164 3.5435 260.383 3.19152 260.601 3.19286V3.19286ZM199.468 3.28351C199.591 3.38085 199.733 3.49284 199.876 3.60484C199.708 3.7795 199.541 3.95286 199.373 4.12752C199.271 3.97152 199.084 3.80752 199.093 3.65819C199.101 3.52619 199.332 3.41018 199.468 3.28351ZM253.227 4.22352C252.945 4.28885 252.657 4.42885 252.399 4.38752C252.297 4.37152 252.263 3.94884 252.196 3.71284C252.484 3.67951 252.773 3.61417 253.057 3.63817C253.12 3.64484 253.155 3.96352 253.227 4.22352ZM225.104 7.08885C225.163 7.29285 225.221 7.49817 225.28 7.7035C224.672 7.86483 224.065 8.02485 223.457 8.18485C223.404 7.99818 223.351 7.80885 223.297 7.62085C223.9 7.44485 224.501 7.26619 225.104 7.08885V7.08885ZM221.287 7.72085C221.173 8.04218 220.847 8.28617 220.485 8.70484C220.217 8.2315 219.904 7.87286 219.976 7.76353C220.168 7.46619 220.524 7.27551 220.815 7.04217C220.987 7.27417 221.34 7.56885 221.287 7.72085V7.72085ZM247.651 2.33019C247.5 2.98886 247.349 3.6462 247.108 4.6982C246.001 3.44753 246.291 2.76618 246.905 2.11151C247.153 2.18484 247.401 2.25819 247.651 2.33019ZM185.773 46.5728C185.175 46.4582 184.575 46.3449 183.976 46.2302C184.015 46.0222 184.055 45.8155 184.096 45.6075C184.695 45.7262 185.292 45.8462 185.891 45.9675C185.852 46.1702 185.813 46.3715 185.773 46.5728V46.5728ZM252.281 6.4022C253.055 5.68487 253.803 5.65151 254.909 7.24217C253.721 7.24217 253.001 7.24217 252.267 7.24217C252.267 6.79284 252.18 6.49553 252.281 6.4022ZM217.181 3.8035C217.485 3.71283 217.893 3.97553 218.636 4.19686C218.057 4.66353 217.791 5.05017 217.491 5.07284C217.164 5.10084 216.811 4.79286 216.469 4.63153C216.703 4.34086 216.888 3.8915 217.181 3.8035ZM294.248 37.1702C293.337 38.0435 292.841 38.5208 291.948 39.3782C291.747 37.4128 292.359 37.0515 294.248 37.1702ZM134.517 44.8088C134.267 44.9928 134.017 45.1769 133.764 45.3635C133.387 44.8849 133.007 44.4049 132.629 43.9249C132.88 43.7502 133.317 43.3915 133.355 43.4315C133.777 43.8542 134.14 44.3395 134.517 44.8088ZM174.116 46.3649C172.621 45.9155 172.181 45.2675 173.537 43.9942C173.785 45.0169 173.952 45.6915 174.116 46.3649ZM300.107 35.3395C298.992 35.4515 297.879 35.5622 296.765 35.6728C297.831 34.0088 299.025 34.7248 300.107 35.3395ZM232.423 2.27818C232.759 2.72484 233.276 3.13953 233.365 3.63153C233.423 3.94753 232.848 4.37819 232.325 5.05819C231.875 4.25286 231.405 3.76352 231.391 3.26086C231.383 2.94219 232.056 2.60618 232.423 2.27818V2.27818ZM255.265 1.7342C256.14 2.2502 257.015 2.76484 258.059 3.37951C255.639 4.93151 255.552 4.89286 255.265 1.7342ZM264.001 8.97951C265.403 8.97951 266.525 8.97951 267.904 8.97951C266.028 10.3195 266.028 10.3195 264.001 8.97951ZM244.712 3.56219C241.913 5.33286 239.027 5.21819 237.269 3.56219C239.648 3.56219 241.863 3.56219 244.712 3.56219ZM271.823 10.2009C276.192 10.2009 280.56 10.2009 284.928 10.2009C284.933 10.5102 284.939 10.8222 284.944 11.1315C280.493 12.2235 276.197 10.4249 271.823 10.2009ZM226.372 4.52219C224.699 4.91552 223.145 5.28084 221.18 5.74217C220.949 4.94084 220.675 3.99017 220.317 2.74351C221.709 2.83151 222.664 2.89019 223.756 2.95685C223.908 2.43685 224.052 1.93417 224.273 1.17284C223.173 1.07417 222.264 0.991504 221.32 0.90617C221.416 0.567504 221.465 0.238169 221.516 0.238169C223.028 0.234169 224.829 -0.244491 225.984 0.411509C227.487 1.26884 226.852 3.10352 226.372 4.52219V4.52219ZM204.317 2.16219C206.196 2.46886 208.167 2.22085 210.239 2.22085C210.536 3.10485 210.871 4.10484 211.208 5.11284C207.512 6.06351 206.791 5.91284 205.907 3.87417C204.895 4.25151 204.051 4.52885 203.244 4.88218C202.572 5.17551 201.941 5.56087 201.237 5.93553C200.637 2.53553 201.495 1.69953 204.317 2.16219ZM277.917 2.46353C278.397 3.41153 279.496 4.04485 280.764 5.25152C274.844 5.07285 269.308 4.90617 263.723 4.73817C264.339 2.5395 265.097 2.10086 266.739 2.62619C267.855 2.98486 269.119 3.49417 270.177 3.27284C271.704 2.95284 273.108 2.67019 274.653 3.09553C274.996 3.19019 275.541 2.54886 276.612 1.8342C274.633 1.52086 273.409 1.3275 272.005 1.10617C274.771 -0.775163 276.56 -0.213806 277.917 2.46353V2.46353ZM189.987 12.4435C189.984 12.4422 189.98 12.4422 189.976 12.4408C188.06 12.6275 186.145 12.8182 184.229 13.0048C184.216 12.7808 184.204 12.5582 184.191 12.3355C186.103 11.8875 188.032 11.9328 189.976 12.4408C189.979 12.4408 189.981 12.4408 189.984 12.4408C189.907 12.2635 189.889 12.1008 189.913 11.9462C189.655 10.1675 189.747 10.0449 190.904 8.56887C192.431 10.1889 190.087 10.8408 189.913 11.9462C189.935 12.1008 189.96 12.2622 189.987 12.4435V12.4435ZM231.82 13.0982C231.803 12.8262 231.787 12.5542 231.769 12.2808C232.917 12.1808 234.065 12.0835 235.215 11.9835C234.169 13.8342 232.973 13.0729 231.82 13.0982ZM174.099 9.16219C174.893 9.85953 175.553 10.4408 176.436 11.2168C173.972 11.0168 173.972 11.0169 174.099 9.16219ZM184.011 9.32486C184.3 9.46086 184.663 9.53552 184.855 9.75819C185.024 9.95152 184.997 10.3115 185.057 10.5995C184.883 10.6875 184.707 10.7795 184.531 10.8675C184.264 10.4769 183.995 10.0875 183.727 9.69686C183.821 9.57153 183.917 9.44752 184.011 9.32486V9.32486ZM186.264 6.35285C187.208 6.22218 188.196 6.08351 189.183 5.94618C189.309 6.20751 189.435 6.46886 189.561 6.73019C188.761 7.81419 189.303 10.1968 186.497 9.50484C186.427 8.54217 186.357 7.60618 186.264 6.35285V6.35285ZM214.033 7.71685C214.107 8.10218 214.224 8.50752 214.249 8.91818C214.273 9.31285 214.204 9.7142 214.177 10.0689C210.545 10.5235 210.583 10.4729 207.576 8.29553C206.951 7.84486 205.945 7.91952 204.956 7.72085C204.808 8.50352 204.76 9.04351 204.596 9.54618C204.44 10.0195 204.165 10.4542 203.895 11.0048C202.065 8.60884 202.076 8.6782 198.972 9.13153C197.617 9.32886 196.209 9.16486 194.601 9.16486C194.601 7.8982 194.601 7.0875 194.601 6.3395C193.78 6.1035 193.193 5.9342 192.164 5.63553C194.155 4.4502 195.789 3.47683 197.423 2.5035C194.584 2.4155 191.677 2.39817 189.297 3.51017C187.411 4.39151 185.855 4.63151 183.963 4.24618C182.643 3.97818 180.196 5.14219 180.479 5.82486C181.343 7.90486 179.501 8.31953 178.897 9.6342C178.263 7.8382 177.728 6.33551 177.271 5.04351C175.499 5.33017 174.135 5.67151 172.757 5.74351C170.692 5.85151 168.613 5.69818 166.545 5.78485C163.709 5.90618 160.851 6.45953 158.64 3.83286C157.917 2.97553 156.663 2.62217 155.621 3.47417C153.905 4.87284 151.899 4.69818 149.913 4.75418C142.72 4.96085 135.545 3.79685 128.347 4.51952C127.807 4.57418 127.248 4.41018 126.696 4.38351C125.267 4.31285 123.835 4.18219 122.409 4.22219C119.748 4.29419 117.095 4.51153 114.433 4.59553C102.597 4.96886 90.7587 5.35152 78.9187 5.66086C74.0613 5.78619 69.1973 5.8502 64.3413 5.73286C60.4813 5.64086 56.6307 5.17817 52.7693 4.9715C46.9107 4.66084 41.044 4.45418 35.1853 4.15285C28.9147 3.83018 22.8054 4.47151 16.9294 6.84084C14.8747 7.67017 13.0867 7.48484 11.2947 5.77284C10.3147 4.83684 8.59735 4.13819 6.58535 5.12752C8.65602 6.22486 10.312 7.22486 12.068 7.99953C13.78 8.75286 15.9534 7.87019 17.9627 9.49553C16.4374 10.1929 15.276 10.7249 14.7453 10.9675C11.0386 9.65153 7.98533 8.56618 4.93066 7.48218C4.74 7.71551 4.54936 7.94751 4.36003 8.17951C5.20669 8.81151 6.05333 9.44086 7.29199 10.3622C4.58399 10.9222 2.36267 11.3835 0 11.8715C0.318667 14.4222 2.49999 15.7035 3.72533 17.8035C2.97599 17.8035 2.55197 17.7728 2.1373 17.8115C1.61597 17.8595 1.10131 17.9648 0.606641 18.0435C0.685307 20.6248 0.641305 20.6768 2.1373 21.9062C4.61464 23.9435 7.03866 26.0795 9.69733 27.8555C13.4773 30.3809 17.4427 32.5915 22.2413 32.5689C23.3147 32.5635 24.5173 32.7529 25.44 33.2569C30.216 35.8689 35.3654 36.8275 40.7214 37.2235C43.992 37.4649 47.352 37.8275 49.6053 40.9329C50.6413 40.8662 51.8307 41.0408 52.8227 40.6782C55.5653 39.6808 58.2787 39.9889 61.0214 40.4555C64.948 41.1235 68.852 41.9649 72.8014 42.4515C75.0694 42.7315 77.4293 42.6422 79.7066 42.3755C81.6533 42.1475 83.5173 41.1728 85.464 40.9808C89.532 40.5742 93.628 40.3448 97.716 40.2808C100.587 40.2355 103.461 40.6702 106.337 40.7355C111.961 40.8635 117.588 40.8795 123.213 40.9569C123.763 40.9649 124.336 40.9982 124.855 41.1582C126.776 41.7489 128.729 41.2809 130.576 41.3862C132.661 41.5049 134.332 41.2089 136.056 40.2355C136.465 40.8182 136.812 41.3115 137.129 41.7649C138.241 41.4529 139.184 41.0382 140.151 40.9702C140.812 40.9235 141.837 41.1502 142.129 41.6142C143.436 43.6848 144.476 42.1675 145.267 41.7115C146.297 42.2008 147.072 42.8315 147.899 42.9075C149.712 43.0728 151.553 42.9582 153.695 42.9582C155.88 39.7809 159.689 41.4342 163.017 40.2502C162.728 43.0835 164.815 42.7595 166.1 43.1329C167.752 43.6115 168.165 42.0022 168.716 40.5782C169.06 41.3862 169.255 41.8395 169.577 42.5995C170.288 41.6729 170.864 40.9235 171.661 39.8862C171.453 43.3115 171.592 43.4315 174.32 43.0315C175.621 42.8409 176.94 42.7489 178.375 42.5995C178.516 41.6742 178.643 40.8502 178.821 39.6768C179.697 40.1595 180.573 40.3475 180.905 40.8795C181.875 42.4262 183.075 42.7248 184.837 42.5422C187.116 42.3075 189.44 42.5035 191.743 42.5675C193.475 42.6142 195.233 42.5688 196.923 42.8835C198.625 43.1995 200.205 43.4209 201.556 42.2302C204.077 43.9862 205.881 44.4489 208.997 44.5235C210.788 44.5649 213.065 44.2569 214.267 45.1982C218.512 48.5249 223.452 46.8902 228.011 47.7302C228.224 47.7715 228.515 47.3915 229.176 46.9128C226.601 46.4702 224.405 46.0928 222.209 45.7168C223.563 45.5582 224.897 45.6302 226.22 45.5475C230.921 45.2502 235.643 44.6609 239.993 47.2555C240.431 47.5155 241.077 47.4702 241.627 47.4835C252.939 47.7502 264.287 48.1529 275.417 45.6595C281.681 44.2555 286.437 40.7488 287.96 34.6835C287.255 33.0142 286.751 31.8942 286.332 30.7422C286.284 30.6102 286.711 30.3022 287.027 29.9542C287.404 30.3035 287.68 30.6302 288.023 30.8542C288.445 31.1289 288.924 31.3182 289.649 31.6768C290.208 30.5355 290.672 29.5889 290.977 28.9649C290.205 27.4155 289.616 26.2355 288.997 24.9995C291.251 24.0022 293.535 25.7715 295.513 23.6062C293.875 23.1995 292.581 22.9542 291.351 22.5315C290.924 22.3849 290.429 21.8182 290.381 21.3969C290.347 21.0835 290.967 20.6755 291.331 20.3488C291.564 20.1422 291.863 20.0035 291.963 19.9422C290.385 19.0168 289.015 18.1262 287.567 17.3875C286.109 16.6449 284.617 15.9235 283.064 15.4342C281.815 15.0395 280.443 15.0462 279.14 14.8022C273.447 13.7395 267.704 13.8208 262.023 14.5408C260.351 14.7515 259.177 15.1795 257.953 13.7222C256.808 12.3555 255.879 13.7008 255.2 14.2142C253.955 13.7115 252.964 13.0222 251.933 12.9555C249.741 12.8169 247.528 13.0408 245.323 13.0422C242.784 13.0435 240.233 13.0422 237.817 12.0408C244.801 10.8662 251.915 11.9862 258.865 10.3662C256.857 9.87286 254.844 9.73684 252.831 9.73817C242.328 9.74484 231.824 9.80351 221.321 9.77684C220.531 9.77551 219.501 9.47286 218.989 8.92886C216.912 6.71953 216.972 6.66485 214.033 7.71685" fill="#1091A0"/>
</svg>
